<svg version="1.0" xmlns="http://www.w3.org/2000/svg"
 width="34.000000pt" height="34.000000pt" viewBox="0 0 1920.000000 1920.000000"
 preserveAspectRatio="xMidYMid meet">

<g transform="translate(0.000000,1920.000000) scale(0.100000,-0.100000)"
fill="#000000" stroke="none">
<path d="M7890 16458 c-50 -14 -97 -53 -120 -98 -20 -38 -20 -60 -20 -950 l0
-910 -2752 0 c-2962 0 -2853 2 -3010 -50 -363 -120 -628 -425 -693 -799 -13
-73 -15 -726 -15 -5028 0 -3394 3 -4967 10 -5016 24 -164 100 -342 201 -473
67 -87 199 -205 285 -255 96 -56 184 -92 301 -121 l88 -23 7435 0 7435 0 88
23 c117 29 205 65 301 121 86 50 218 168 285 255 101 131 177 309 201 473 7
49 10 1622 10 5016 0 4302 -2 4955 -15 5028 -65 374 -330 679 -693 799 -157
52 -48 50 -3009 50 l-2753 0 0 908 0 909 -23 44 c-16 29 -40 54 -72 74 l-48
30 -1691 2 c-1103 1 -1703 -2 -1726 -9z m-142 -2930 l2 -577 -349 -3 -349 -3
-38 -31 c-68 -55 -79 -77 -79 -159 0 -82 11 -104 79 -159 l38 -31 2537 -3
2538 -2 44 23 c87 46 129 170 86 252 -20 40 -75 91 -110 104 -18 7 -151 11
-363 11 l-334 0 2 578 3 577 2770 0 c2657 0 2773 -1 2835 -18 204 -58 366
-211 437 -412 l28 -80 3 -4948 c2 -5502 9 -5019 -67 -5172 -70 -141 -186 -247
-339 -309 l-77 -31 -7445 0 -7445 0 -77 31 c-153 62 -269 168 -339 309 -76
153 -69 -330 -67 5172 l3 4948 28 80 c81 231 272 389 512 425 28 4 1283 7
2790 6 l2740 -1 3 -577z"/>
<path d="M2929 11313 c-45 -23 -59 -37 -81 -82 l-28 -55 0 -2705 c0 -2596 1
-2708 19 -2746 26 -57 79 -101 141 -114 69 -15 4603 -16 4681 -1 64 12 116 50
144 106 20 39 20 59 20 2759 0 2540 -1 2722 -17 2751 -24 44 -81 91 -125 103
-26 8 -773 11 -2369 11 l-2330 0 -55 -27z m4499 -2267 l2 -1899 -52 74 c-186
266 -425 499 -688 672 -128 83 -383 212 -502 252 -49 16 -88 32 -88 35 0 3 44
50 99 105 373 378 467 919 241 1393 -265 556 -901 832 -1492 646 -347 -109
-636 -379 -771 -720 -68 -169 -81 -246 -81 -454 0 -156 4 -199 22 -271 60
-244 179 -450 355 -621 77 -75 79 -78 56 -87 -13 -5 -78 -31 -144 -56 -209
-82 -432 -213 -630 -372 -132 -105 -331 -312 -428 -443 -43 -58 -86 -116 -97
-130 -19 -25 -19 5 -19 1871 -1 1043 2 1899 6 1902 3 4 952 6 2107 5 l2101 -3
3 -1899z"/>
<path d="M9602 10930 c-44 -10 -94 -46 -123 -88 -19 -29 -24 -48 -24 -102 0
-56 4 -73 28 -108 15 -23 46 -52 70 -64 l42 -23 3415 -3 c2470 -2 3427 0 3460
8 93 23 150 96 150 192 0 90 -57 162 -149 188 -43 12 -6818 12 -6869 0z"/>
<path d="M9563 8839 c-72 -36 -113 -102 -113 -184 0 -44 39 -114 83 -149 l39
-31 3451 -3 3451 -2 44 21 c87 42 128 159 88 252 -17 43 -76 93 -123 106 -26
8 -1102 11 -3458 11 l-3420 0 -42 -21z"/>
<path d="M9565 6763 c-46 -24 -76 -54 -96 -98 -46 -100 0 -216 103 -260 34
-13 394 -15 3465 -15 3315 0 3429 1 3468 19 79 36 115 95 115 185 0 70 -40
135 -102 165 l-44 21 -3440 0 c-3116 -1 -3442 -2 -3469 -17z"/>
<path d="M3478 4690 c-47 -14 -88 -44 -116 -84 -22 -32 -27 -50 -27 -100 0
-81 26 -131 90 -171 l48 -30 1162 0 1162 0 48 30 c32 20 57 45 73 75 49 92 11
215 -83 264 -40 21 -45 21 -1185 23 -630 1 -1157 -2 -1172 -7z"/>
<path d="M6650 4689 c-192 -57 -184 -333 10 -378 25 -6 140 -11 256 -11 232 0
287 9 338 56 36 34 65 99 66 145 0 59 -45 135 -98 167 l-47 27 -245 2 c-146 1
-259 -2 -280 -8z"/>
</g>
</svg>