<svg xmlns="http://www.w3.org/2000/svg" width="20" height="20" viewBox="0 0 24 24" fill="none"><path fill-rule="evenodd" clip-rule="evenodd" d="M10.5 5C10.5 4.72386 10.2761 4.5 10 4.5C9.72386 4.5 9.5 4.72386 9.5 5V5.5H7C6.17157 5.5 5.5 6.17157 5.5 7V16C5.5 16.8284 6.17157 17.5 7 17.5H17C17.8284 17.5 18.5 16.8284 18.5 16V7C18.5 6.17157 17.8284 5.5 17 5.5H14.5V5C14.5 4.72386 14.2761 4.5 14 4.5C13.7239 4.5 13.5 4.72386 13.5 5V5.5H10.5V5ZM9.5 6.5C9.5 6.77614 9.72386 7 10 7C10.2761 7 10.5 6.77614 10.5 6.5H13.5C13.5 6.77614 13.7239 7 14 7C14.2761 7 14.5 6.77614 14.5 6.5H17C17.2761 6.5 17.5 6.72386 17.5 7V8.5H6.5V7C6.5 6.72386 6.72386 6.5 7 6.5H9.5ZM6.5 9.5V16C6.5 16.2761 6.72386 16.5 7 16.5H17C17.2761 16.5 17.5 16.2761 17.5 16V9.5H6.5Z" fill="#555555"/></svg>