<svg xmlns="http://www.w3.org/2000/svg" xmlns:xlink="http://www.w3.org/1999/xlink" width="30.498" height="30.5" viewBox="0 0 30.498 30.5">
  <defs>
    <clipPath id="clip-path">
      <rect id="Rectángulo_147801" data-name="Rectángulo 147801" width="30.498" height="30.5" transform="translate(0 0)" fill="none"/>
    </clipPath>
  </defs>
  <g id="Grupo_232" data-name="Grupo 232" transform="translate(0 0)">
    <g id="Grupo_232-2" data-name="Grupo 232" clip-path="url(#clip-path)">
      <path id="Trazado_84861" data-name="Trazado 84861" d="M19.692,15.342a7.671,7.671,0,1,0-7.669-7.673,7.681,7.681,0,0,0,7.669,7.673m-5.413-7.67a5.414,5.414,0,1,1,5.415,5.413,5.414,5.414,0,0,1-5.415-5.413" fill="#555"/>
      <path id="Trazado_84862" data-name="Trazado 84862" d="M27.381,15.717a3.11,3.11,0,0,0-1.777.555l-3.125,2.091a3,3,0,0,0-2.507-1.351H17.684a6.855,6.855,0,0,0-4.567-1.771v0a6.779,6.779,0,0,0-5.931,3.493l-.125.076-.015-.044a1.128,1.128,0,0,0-1.433-.7L.761,19.72a1.128,1.128,0,0,0-.7,1.433l2.933,8.586a1.128,1.128,0,0,0,1.433.7l4.849-1.657a1.12,1.12,0,0,0,.759-1.14l7.4-.229A10.239,10.239,0,0,0,23.388,25.5l5.8-4.128a3.119,3.119,0,0,0-1.807-5.66M7.478,27.01l-2.713.927-2.2-6.445,2.713-.927ZM16.4,18.915a1.149,1.149,0,0,0,.821.354h2.747a.746.746,0,0,1,0,1.491H15.013a1.129,1.129,0,0,0,0,2.258h4.961a3.007,3.007,0,0,0,2.894-2.2l4-2.677.018-.012a.861.861,0,0,1,.994,1.407l-5.8,4.128a8,8,0,0,1-4.662,1.489h-.035l-8.064.25L7.813,21l.8-.492L8.63,20.5l.016-.013a1.14,1.14,0,0,0,.408-.455,4.525,4.525,0,0,1,7.35-1.116" fill="#555"/>
      <path id="Trazado_84863" data-name="Trazado 84863" d="M18.654,8.35l1.809.314a.223.223,0,0,1,.181.223.362.362,0,0,1-.354.368H18.941a.355.355,0,0,1-.307-.184.832.832,0,0,0-.724-.436.815.815,0,0,0-.419.117.862.862,0,0,0-.389.53.9.9,0,0,0,.085.659,2.023,2.023,0,0,0,1.673,1.052v.37c0,.027,0,.055,0,.082a.837.837,0,1,0,1.672-.082V10.98a2.086,2.086,0,0,0,1.784-2.092,1.94,1.94,0,0,0-1.579-1.941l-1.809-.313a.223.223,0,0,1-.181-.223.362.362,0,0,1,.354-.368H20.45a.354.354,0,0,1,.307.184.829.829,0,0,0,.724.435.812.812,0,0,0,.419-.117.862.862,0,0,0,.389-.53.891.891,0,0,0-.085-.659A2.022,2.022,0,0,0,20.531,4.3v-.37a.836.836,0,1,0-1.671,0v.381a2.085,2.085,0,0,0-1.785,2.095A1.939,1.939,0,0,0,18.654,8.35" fill="#555"/>
    </g>
  </g>
</svg>