<svg xmlns="http://www.w3.org/2000/svg" width="20" height="20" viewBox="0 0 20 20">
  <path id="Pedidos" d="M18.333,11.667a.833.833,0,0,1-.833.833H5.614a2.5,2.5,0,0,0,2.35,1.667h7.869a.833.833,0,0,1,0,1.667H7.964a4.167,4.167,0,0,1-4.138-3.679L2.679,2.4a.833.833,0,0,0-.827-.737H.833A.833.833,0,0,1,.833,0H1.852A2.5,2.5,0,0,1,4.334,2.207l.034.293H7.5a.833.833,0,0,1,0,1.667H4.565l.784,6.667H17.5A.833.833,0,0,1,18.333,11.667Zm-12.5,5A1.667,1.667,0,1,0,7.5,18.333,1.666,1.666,0,0,0,5.833,16.667Zm8.333,0a1.667,1.667,0,1,0,1.667,1.667A1.666,1.666,0,0,0,14.167,16.667ZM15.833,4.655V3.333a.833.833,0,1,0-1.667,0V5a.83.83,0,0,0,.244.589l.833.833a.833.833,0,1,0,1.178-1.178ZM20,5a5,5,0,1,1-5-5,5.005,5.005,0,0,1,5,5ZM18.333,5A3.333,3.333,0,1,0,15,8.333,3.337,3.337,0,0,0,18.333,5Z" fill="#555"/>
</svg>